<svg width="92" height="92" viewBox="0 0 92 92" fill="none" xmlns="http://www.w3.org/2000/svg">
<path d="M92 46C92 71.4051 71.4051 92 46 92C20.5949 92 0 71.4051 0 46C0 20.5949 20.5949 0 46 0C71.4051 0 92 20.5949 92 46Z" fill="url(#paint0_linear_1040_34)"/>
<path d="M59.9331 57.0001V35.1819H74.3791V38.9852H64.546V44.184H73.4203V47.9873H64.546V57.0001H59.9331Z" fill="white"/>
<path d="M46.3235 57.3197C44.8178 57.3197 43.5181 57.0498 42.4243 56.5101C41.3306 55.9703 40.4889 55.2387 39.8995 54.3155C39.3171 53.3851 39.0259 52.3481 39.0259 51.2047C39.0259 50.3524 39.1963 49.596 39.5372 48.9355C39.8782 48.275 40.354 47.6677 40.9648 47.1137C41.5756 46.5527 42.2858 45.9951 43.0955 45.4412L47.3249 42.6606C47.8718 42.3126 48.273 41.9468 48.5287 41.5633C48.7844 41.1727 48.9122 40.7501 48.9122 40.2956C48.9122 39.8623 48.7382 39.461 48.3902 39.0917C48.0422 38.7224 47.5486 38.5413 46.9094 38.5484C46.4833 38.5484 46.1139 38.6443 45.8014 38.836C45.4889 39.0207 45.2439 39.2657 45.0664 39.5711C44.8959 39.8694 44.8107 40.2032 44.8107 40.5726C44.8107 41.0271 44.9385 41.4887 45.1942 41.9575C45.4499 42.4262 45.7908 42.9234 46.2169 43.449C46.6431 43.9674 47.1083 44.5285 47.6125 45.1322L57.957 57.0001H53.2269L44.5976 47.3907C44.0294 46.7444 43.4612 46.0697 42.8931 45.3666C42.332 44.6564 41.8632 43.9035 41.4868 43.1081C41.1104 42.3055 40.9222 41.4355 40.9222 40.498C40.9222 39.4397 41.1672 38.488 41.6573 37.6429C42.1544 36.7977 42.8505 36.1301 43.7453 35.64C44.6402 35.1429 45.6843 34.8943 46.8774 34.8943C48.0422 34.8943 49.0472 35.1322 49.8924 35.6081C50.7446 36.0768 51.398 36.7018 51.8526 37.4831C52.3142 38.2572 52.5451 39.1095 52.5451 40.0399C52.5451 41.0697 52.2894 42.0037 51.778 42.8417C51.2738 43.6727 50.5635 44.4184 49.6473 45.0789L45.1942 48.2856C44.5905 48.726 44.1431 49.177 43.8519 49.6386C43.5678 50.0932 43.4257 50.5299 43.4257 50.949C43.4257 51.4674 43.5536 51.9326 43.8093 52.3446C44.0649 52.7565 44.4272 53.0832 44.8959 53.3247C45.3647 53.5591 45.9151 53.6762 46.5472 53.6762C47.3142 53.6762 48.0706 53.5022 48.8164 53.1542C49.5692 52.7991 50.251 52.2984 50.8618 51.6521C51.4797 50.9987 51.9733 50.2245 52.3426 49.3297C52.712 48.4348 52.8966 47.444 52.8966 46.3574H56.6573C56.6573 47.6926 56.5117 48.8964 56.2205 49.9689C55.9293 51.0342 55.5245 51.9646 55.006 52.7601C54.4875 53.5484 53.8945 54.1947 53.2269 54.699C53.0138 54.8339 52.8078 54.9618 52.609 55.0825C52.4101 55.2032 52.2041 55.3311 51.9911 55.466C51.1814 56.1194 50.2759 56.5917 49.2745 56.8829C48.2801 57.1741 47.2965 57.3197 46.3235 57.3197Z" fill="white"/>
<path d="M31.3635 42.2344C31.2144 41.7159 31.0049 41.2578 30.735 40.8601C30.4651 40.4553 30.1349 40.1144 29.7442 39.8374C29.3607 39.5533 28.9204 39.3367 28.4232 39.1875C27.9332 39.0384 27.3898 38.9638 26.7932 38.9638C25.6782 38.9638 24.6981 39.2408 23.8529 39.7948C23.0148 40.3487 22.3614 41.1549 21.8927 42.2131C21.4239 43.2642 21.1895 44.5497 21.1895 46.0696C21.1895 47.5895 21.4204 48.8821 21.882 49.9475C22.3437 51.0128 22.9971 51.826 23.8422 52.3871C24.6874 52.9411 25.6853 53.2181 26.8358 53.2181C27.8799 53.2181 28.7712 53.0334 29.5099 52.6641C30.2556 52.2877 30.8238 51.7585 31.2144 51.0767C31.6121 50.3949 31.811 49.5888 31.811 48.6584L32.7485 48.7969H27.1235V45.3239H36.2535V48.0725C36.2535 49.9901 35.8486 51.6378 35.039 53.0156C34.2293 54.3864 33.1143 55.4446 31.6938 56.1904C30.2733 56.929 28.6469 57.2983 26.8145 57.2983C24.7691 57.2983 22.9722 56.8473 21.4239 55.9453C19.8756 55.0362 18.6682 53.7472 17.8018 52.0781C16.9424 50.402 16.5127 48.4134 16.5127 46.1122C16.5127 44.3438 16.7684 42.7671 17.2797 41.3821C17.7982 39.9901 18.5226 38.8111 19.453 37.8452C20.3834 36.8793 21.4665 36.1442 22.7023 35.6399C23.9381 35.1357 25.2769 34.8835 26.7187 34.8835C27.9545 34.8835 29.105 35.0647 30.1704 35.4269C31.2357 35.782 32.1803 36.2862 33.0042 36.9397C33.8351 37.5931 34.5134 38.3708 35.039 39.2727C35.5645 40.1676 35.9019 41.1549 36.051 42.2344H31.3635Z" fill="white"/>
<defs>
<linearGradient id="paint0_linear_1040_34" x1="46" y1="0" x2="46" y2="92" gradientUnits="userSpaceOnUse">
<stop stop-color="#BF8654"/>
<stop offset="1" stop-color="#824C1D"/>
</linearGradient>
</defs>
</svg>
